<svg width="800" height="600" xmlns="http://www.w3.org/2000/svg"> ??
    <defs>
        <filter id="svg_28_blur">
            <feGaussianBlur stdDeviation="2" in="SourceGraphic"/>
        </filter>
    </defs>
    <path filter="url(#svg_28_blur)" opacity="0.5" id="svg_28" d="m123,41c129,60 -33,-66 89,-4c122,62 71,-79 129,-6c58,73 323,-45 275,23c-48,68 186,30 117,119c-69,89 -124,90 -35,205c89,115 126,137 24,144c-102,7 -136,102 -191,-20c-55,-122 -116,149 -125,14c-9,-135 -193,158 -183,59c10,-99 -103,-52 -123,-37c-20,15 -76,-147 2,-113c78,34 -90,-171 -34,-162c56,9 -57,-121 -24,-114c33,7 -26,-85 18,-79c44,6 -68,-89 61,-29z" stroke="#000000" fill="#ff007f"/>
    <path id="svg_30" d="m193,449c-31,57 -77,-125 -58,-221c19,-96 -11,-173 62,-125c73,48 169,-93 158,25c-11,118 85,90 35,147c-50,57 -14,44 -48,102c-34,58 11,126 -46,83c-57,-43 -72,-68 -103,-11z" stroke="#000000" fill="#007fff"/>
    <path id="svg_34" d="m194,449c-24,48 -40,-73 -10,-114c30,-41 13,-52 72,-53c59,-1 93,49 61,94c-32,45 38,121 -23,88c-61,-33 -76,-63 -100,-15z" stroke="#000000" fill="#ffffff"/>
    <path id="svg_35" d="m516,84c-68,-12 -81,-9 -82,55c-1,64 -20,136 -42,186c-22,50 -47,29 -43,70c4,41 5,53 25,64c20,11 -4,9 45,10c49,1 31,-5 70,-2c39,3 104,-33 41,-42c-63,-9 -192,28 -122,-36c70,-64 48,-199 73,-159c25,40 -20,-104 3,-129c23,-25 100,-5 32,-17z" stroke="#000000" fill="#ffff00"/>
    <path id="svg_36" d="m533,221c-26,66 -61,118 -33,147c28,29 24,70 49,42c25,-28 45,-14 27,-66c-18,-52 -42,-21 -23,-63c19,-42 38,-34 25,-57c-13,-23 -12,-31 -26,-22c-14,9 7,-47 -19,19z" stroke="#000000" fill="#7f7f00"/>
    <path id="svg_37" d="m560,142c-11,27 -26,24 0,30c26,6 27,14 29,-3c2,-17 5,-28 -8,-28c-13,0 -10,-26 -21,1z" stroke="#000000" fill="#7f7f00"/>
    <path id="svg_38" d="m255,153c-37,5 -42,-9 -39,19c3,28 4,36 21,33c17,-3 23,2 35,-11c12,-13 37,-17 12,-24c-25,-7 8,-22 -29,-17z" stroke="#000000" fill="#ffffff"/>
</svg>